<?xml version="1.0" standalone="no"?>
<!DOCTYPE svg PUBLIC "-//W3C//DTD SVG 20010904//EN"
 "http://www.w3.org/TR/2001/REC-SVG-20010904/DTD/svg10.dtd">
<svg version="1.0" xmlns="http://www.w3.org/2000/svg"
 width="300.000000pt" height="300.000000pt" viewBox="0 0 300.000000 300.000000"
 preserveAspectRatio="xMidYMid meet">
<metadata>
Created by potrace 1.10, written by Peter Selinger 2001-2011
</metadata>
<g transform="translate(0.000000,300.000000) scale(0.100000,-0.100000)"
fill="#000000" stroke="none">
<path d="M1317 2600 c-375 -67 -696 -350 -824 -725 -71 -209 -71 -492 0 -700
152 -444 550 -735 1007 -735 457 0 855 291 1007 735 71 208 71 491 0 700 -96
281 -289 502 -556 635 -144 72 -232 92 -421 96 -91 1 -187 -1 -213 -6z m282
-40 c241 -26 431 -117 608 -292 222 -219 331 -525 301 -847 -45 -492 -439
-891 -918 -929 -296 -24 -565 70 -777 272 -322 305 -416 777 -238 1189 90 207
276 406 475 507 123 62 253 94 435 108 11 1 62 -3 114 -8z"/>
<path d="M1442 2255 c-55 -72 -75 -137 -69 -225 3 -41 8 -85 12 -96 6 -18 0
-25 -39 -43 l-45 -22 -31 35 c-47 53 -123 86 -199 87 -42 1 -66 -3 -72 -12
-21 -35 33 -162 92 -212 21 -19 39 -37 39 -41 0 -4 -9 -19 -20 -33 -18 -23
-20 -41 -20 -162 0 -201 27 -286 127 -392 82 -88 228 -144 328 -126 109 19
230 101 292 200 47 75 63 142 70 294 6 142 6 142 -20 181 l-27 38 54 56 c40
41 59 70 70 109 28 94 23 103 -62 101 -67 -2 -146 -37 -194 -86 l-36 -37 -46
23 c-34 16 -45 26 -40 38 4 8 12 42 17 76 8 52 7 71 -12 130 -26 84 -81 164
-114 164 -14 -1 -34 -16 -55 -45z m90 -42 c44 -69 53 -103 53 -209 0 -97 -1
-102 -30 -137 -46 -55 -62 -56 -107 -9 l-38 41 0 99 c0 60 6 115 14 140 18 50
57 112 72 112 6 0 22 -17 36 -37z m-367 -282 c88 -40 168 -146 149 -196 -6
-15 -16 -17 -78 -12 -52 5 -74 11 -83 24 -7 10 -27 33 -44 51 -32 35 -68 105
-69 135 0 24 71 23 125 -2z m783 -18 c-11 -41 -42 -90 -91 -146 -32 -37 -36
-39 -103 -40 l-69 -2 1 43 c1 38 7 49 50 93 60 61 115 89 176 89 l46 0 -10
-37z m-500 -88 c18 -25 39 -45 47 -45 7 0 31 21 52 46 l39 45 43 -17 c36 -14
42 -20 36 -38 -3 -12 -9 -39 -12 -61 -8 -61 10 -72 95 -57 66 12 67 11 90 -14
20 -23 22 -35 22 -141 l0 -115 -31 6 c-17 3 -53 6 -79 6 l-48 0 -7 51 c-8 59
0 73 25 42 21 -27 38 -29 46 -8 7 16 -52 94 -106 142 -19 17 -63 44 -97 62
l-62 31 -57 -25 c-70 -31 -123 -73 -179 -142 -49 -60 -53 -71 -28 -80 11 -4
22 1 31 15 23 34 32 26 32 -28 0 -58 2 -56 -97 -64 l-73 -5 0 112 c1 102 3
115 24 140 21 26 25 27 67 18 60 -14 92 -13 114 3 16 11 17 18 8 52 -6 21 -14
47 -18 56 -5 13 3 22 32 37 21 11 43 20 48 20 6 0 25 -20 43 -44z m110 -139
c73 -37 82 -52 92 -153 4 -48 7 -89 6 -90 0 0 -10 -3 -21 -5 -18 -3 -20 3 -23
55 l-3 58 -112 -3 -112 -3 -5 -55 c-3 -30 -8 -54 -12 -52 -5 1 -13 2 -19 2
-19 0 -2 181 19 202 19 20 110 67 130 67 7 1 34 -10 60 -23z m-80 -220 c4 -45
-5 -58 -36 -50 -18 5 -22 13 -22 43 0 44 7 53 35 49 15 -2 21 -12 23 -42z m92
0 c0 -31 -5 -46 -16 -50 -30 -11 -34 -6 -34 44 0 47 2 50 25 50 23 0 25 -4 25
-44z m-142 -90 c16 -16 16 -18 -8 -37 -84 -68 -130 -112 -130 -126 0 -9 23 6
60 40 109 102 250 152 402 145 49 -2 92 -8 98 -14 5 -5 7 -19 4 -32 -5 -18
-11 -21 -33 -14 -14 4 -69 7 -121 6 -143 -2 -273 -53 -389 -154 -50 -43 -48
-52 13 -85 l33 -18 61 61 c41 42 82 73 129 95 62 29 77 32 172 34 98 1 105 3
117 25 13 22 13 22 14 2 0 -12 -8 -32 -18 -44 -16 -20 -21 -21 -42 -10 -39 21
-160 7 -233 -28 -60 -28 -137 -92 -137 -114 0 -6 17 5 38 24 80 72 171 108
274 108 60 0 70 -9 45 -41 -10 -13 -30 -17 -87 -17 -89 0 -160 -24 -235 -79
-49 -36 -49 -37 -25 -44 75 -21 165 0 259 61 69 45 78 33 13 -16 -48 -37 -150
-74 -205 -74 -21 0 -53 6 -70 14 -18 7 -52 21 -77 30 -45 17 -74 38 -120 91
-18 20 -20 26 -8 22 11 -4 22 3 32 19 20 29 3 33 -32 8 -21 -14 -22 -14 -22 5
0 11 6 21 13 24 6 2 0 2 -15 0 -22 -4 -30 1 -43 27 -9 17 -14 37 -12 43 2 7
10 0 17 -14 12 -25 14 -26 83 -21 60 4 79 10 113 36 23 17 50 36 60 43 16 10
3 12 -67 12 -76 1 -132 -9 -191 -34 -15 -6 -18 -2 -18 23 0 39 11 41 158 38
92 -2 116 -6 130 -20z m-13 -191 c-49 -52 -77 -66 -89 -46 -3 4 5 17 17 29 22
21 106 72 119 72 3 0 -18 -25 -47 -55z m233 -57 c-4 -12 -51 -31 -108 -43 -28
-6 -33 -5 -23 5 30 32 139 63 131 38z"/>
<path d="M1455 2125 c-21 -42 -28 -72 -29 -123 -1 -61 2 -73 33 -120 39 -61
47 -59 88 22 22 43 25 59 20 114 -5 69 -42 155 -69 160 -11 2 -25 -15 -43 -53z
m77 -103 c10 -54 9 -66 -7 -102 -20 -44 -33 -47 -53 -9 -15 28 -11 129 7 173
10 26 14 28 27 15 8 -9 20 -43 26 -77z"/>
<path d="M1080 1909 c0 -65 74 -145 151 -165 80 -21 88 3 29 84 -32 44 -97 86
-147 96 -29 5 -33 3 -33 -15z m130 -75 c22 -20 40 -43 40 -50 0 -27 -43 -14
-76 23 -62 67 -32 89 36 27z"/>
<path d="M1854 1916 c-23 -7 -57 -25 -76 -40 -39 -29 -95 -123 -82 -136 15
-14 92 6 133 34 41 29 96 118 87 141 -6 18 -8 18 -62 1z m-4 -65 c0 -23 -66
-81 -92 -81 -33 0 -12 40 40 75 44 30 52 31 52 6z"/>
<path d="M1460 1660 c-25 -25 -26 -52 -2 -73 37 -34 92 -11 92 38 0 24 -33 55
-57 55 -7 0 -22 -9 -33 -20z"/>
<path d="M1147 2193 c-15 -14 -6 -105 13 -143 22 -43 86 -87 135 -92 30 -3 30
-2 33 50 4 75 -29 131 -100 166 -54 27 -70 31 -81 19z m66 -54 c83 -43 128
-149 64 -149 -49 0 -97 65 -97 131 0 32 2 34 33 18z"/>
<path d="M1200 2094 c0 -26 57 -94 79 -94 25 0 -6 80 -40 104 -32 22 -39 20
-39 -10z"/>
<path d="M1787 2186 c-75 -27 -126 -102 -127 -183 0 -51 9 -58 58 -42 88 28
146 107 140 192 -3 48 -14 53 -71 33z m30 -51 c3 -9 -2 -36 -12 -60 -30 -81
-107 -114 -113 -49 -3 35 25 76 72 105 38 23 45 23 53 4z"/>
<path d="M1752 2100 c-28 -26 -55 -78 -47 -90 12 -20 62 19 79 60 9 22 16 43
16 45 0 12 -28 3 -48 -15z"/>
<path d="M1007 1763 c-22 -21 2 -56 31 -46 17 7 15 40 -4 47 -19 7 -19 7 -27
-1z"/>
<path d="M1950 1754 c-11 -12 -10 -18 3 -32 16 -15 18 -15 34 0 13 14 14 20 3
32 -7 9 -16 16 -20 16 -4 0 -13 -7 -20 -16z"/>
<path d="M1003 1513 c7 -233 37 -315 161 -439 79 -79 161 -124 264 -145 183
-38 415 93 506 284 46 98 56 153 56 322 0 138 -1 145 -20 145 -19 0 -20 -7
-20 -143 0 -95 -5 -162 -15 -201 -49 -189 -196 -331 -381 -368 -145 -29 -336
69 -435 223 -55 86 -71 156 -75 329 -4 149 -4 155 -25 158 -22 4 -22 3 -16
-165z"/>
</g>
</svg>
