<!DOCTYPE svg PUBLIC "-//W3C//DTD SVG 1.1//EN" "http://www.w3.org/Graphics/SVG/1.1/DTD/svg11.dtd">
<!-- Uploaded to: SVG Repo, www.svgrepo.com, Transformed by: SVG Repo Mixer Tools -->
<svg width="800px" height="800px" viewBox="0 0 24 24" xmlns="http://www.w3.org/2000/svg" fill="#000000">
<g id="SVGRepo_bgCarrier" stroke-width="0"/>
<g id="SVGRepo_tracerCarrier" stroke-linecap="round" stroke-linejoin="round"/>
<g id="SVGRepo_iconCarrier"> <defs> <style>.cls-1{fill:#56b54e;}.cls-2{fill:#60cc5a;}.cls-3{fill:#ffffff;}</style> </defs> <g id="Icons"> <path class="cls-1" d="M23,12A11,11,0,0,1,1,12a10.827,10.827,0,0,1,.29-2.5,11,11,0,0,1,21.42,0A10.827,10.827,0,0,1,23,12Z"/> <ellipse class="cls-2" cx="12" cy="9.5" rx="10.71" ry="8.5"/> </g> <g data-name="Layer 4" id="Layer_4"> <path class="cls-3" d="M12,0A12,12,0,1,0,24,12,12.013,12.013,0,0,0,12,0Zm0,22A10,10,0,1,1,22,12,10.011,10.011,0,0,1,12,22Z"/> <path class="cls-3" d="M16.293,8.293,10,14.586,7.707,12.293a1,1,0,0,0-1.414,1.414l3,3a1,1,0,0,0,1.414,0l7-7a1,1,0,0,0-1.414-1.414Z"/> </g> </g>
</svg>